<?xml version="1.0" encoding="UTF-8"?>
<svg version="1.1" xmlns="http://www.w3.org/2000/svg" width="3038" height="1480">
<path d="M0 0 C1002.54 0 2005.08 0 3038 0 C3038 488.4 3038 976.8 3038 1480 C2035.46 1480 1032.92 1480 0 1480 C0 991.6 0 503.2 0 0 Z " fill="#FEFEFE" transform="translate(0,0)"/>
<path d="M0 0 C1.32 0 2.64 0 4 0 C4 1.65 4 3.3 4 5 C4.99 5 5.98 5 7 5 C7 5.66 7 6.32 7 7 C6.01 7 5.02 7 4 7 C4 10.96 4 14.92 4 19 C4.99 19 5.98 19 7 19 C7 20.32 7 21.64 7 23 C31.255 23.495 31.255 23.495 56 24 C56 24.99 56 25.98 56 27 C11.45 27 -33.1 27 -79 27 C-79 26.01 -79 25.02 -79 24 C-57.55 23.67 -36.1 23.34 -14 23 C-14.99 22.67 -15.98 22.34 -17 22 C-19.44805497 18.59542024 -19.20659925 15.32996232 -19.125 11.25 C-19.10695313 10.07953125 -19.08890625 8.9090625 -19.0703125 7.703125 C-19.04710937 6.81109375 -19.02390625 5.9190625 -19 5 C-18.01 5 -17.02 5 -16 5 C-15.505 11.93 -15.505 11.93 -15 19 C-13.02 18.34 -11.04 17.68 -9 17 C-8.67 13.04 -8.34 9.08 -8 5 C-5.36 5 -2.72 5 0 5 C0 3.35 0 1.7 0 0 Z " fill="#0D6EFD" transform="translate(1624,78)"/>
<path d="M0 0 C42.9 0 85.8 0 130 0 C130 0.99 130 1.98 130 3 C87.1 3 44.2 3 0 3 C0 2.01 0 1.02 0 0 Z " fill="#0D6EFD" transform="translate(1545,54)"/>
<path d="M0 0 C1.32 0 2.64 0 4 0 C4 1.65 4 3.3 4 5 C4.99 5 5.98 5 7 5 C7 5.66 7 6.32 7 7 C6.01 7 5.02 7 4 7 C4 10.96 4 14.92 4 19 C4.99 19 5.98 19 7 19 C7 20.32 7 21.64 7 23 C3.76273455 24.61863273 0.24043124 24.1845318 -3.3125 24.1875 C-4.07240234 24.19974609 -4.83230469 24.21199219 -5.61523438 24.22460938 C-9.78836331 24.23548634 -13.31392273 24.19228236 -17 22 C-19.53872502 18.68597572 -19.20596185 15.29809252 -19.125 11.25 C-19.09792969 9.49429688 -19.09792969 9.49429688 -19.0703125 7.703125 C-19.04710937 6.81109375 -19.02390625 5.9190625 -19 5 C-18.01 5 -17.02 5 -16 5 C-15.67 9.62 -15.34 14.24 -15 19 C-13.02 18.34 -11.04 17.68 -9 17 C-8.67 13.04 -8.34 9.08 -8 5 C-5.36 5 -2.72 5 0 5 C0 3.35 0 1.7 0 0 Z " fill="#F6F9FE" transform="translate(1624,78)"/>
<path d="M0 0 C37.95 0 75.9 0 115 0 C115 0.99 115 1.98 115 3 C77.05 3 39.1 3 0 3 C0 2.01 0 1.02 0 0 Z " fill="#0D6EFD" transform="translate(1545,150)"/>
<path d="M0 0 C2.76092322 2.66266972 3.89078635 4.35114242 4.53125 8.15625 C4.5209375 9.2596875 4.510625 10.363125 4.5 11.5 C4.5103125 12.6034375 4.520625 13.706875 4.53125 14.84375 C3.8888519 18.66035047 2.77988211 20.33737127 0 23 C-2.99286882 23.92485966 -4.78973401 23.45860943 -8 23 C-10.73026756 20.44587874 -11.83249183 17.69118829 -12.203125 13.94921875 C-12.30861008 8.85956356 -11.86108903 5.40167543 -9 1 C-5.87139505 -0.56430248 -3.44397075 -0.35627284 0 0 Z " fill="#1D73F2" transform="translate(3034,93)"/>
<path d="M0 0 C9.86328125 -0.390625 9.86328125 -0.390625 13 0 C15.85996792 2.67678816 15.99309003 3.93781031 16.4375 7.9375 C16.30559494 11.00572648 15.90001387 12.18458978 14.375 15 C12 17 12 17 8.875 17.375 C6 17 6 17 4 16 C4 18.31 4 20.62 4 23 C2.68 23 1.36 23 0 23 C0 15.41 0 7.82 0 0 Z " fill="#287EFD" transform="translate(58,99)"/>
<path d="M0 0 C0.99 0 1.98 0 3 0 C3 7.92 3 15.84 3 24 C1.68 23.67 0.36 23.34 -1 23 C-1.33 23.33 -1.66 23.66 -2 24 C-5.3125 24.375 -5.3125 24.375 -9 24 C-12.19688909 21.29494 -12.90802205 19.64384566 -13.5 15.5 C-12.90802205 11.35615434 -12.19688909 9.70506 -9 7 C-5.3125 6.625 -5.3125 6.625 -2 7 C-1.67 7.33 -1.34 7.66 -1 8 C-0.67 5.36 -0.34 2.72 0 0 Z " fill="#1D78FD" transform="translate(1608,28)"/>
<path d="M0 0 C0.99 0 1.98 0 3 0 C3.33 2.64 3.66 5.28 4 8 C4.33 7.67 4.66 7.34 5 7 C9.09262054 6.53668447 11.18518118 6.36851541 14.5 8.9375 C16.53188702 13.085936 16.37429837 16.60553693 15 21 C13.6640625 22.76171875 13.6640625 22.76171875 12 24 C8.4375 24.1875 8.4375 24.1875 5 24 C4.34 24 3.68 24 3 24 C2.01 24 1.02 24 0 24 C0 16.08 0 8.16 0 0 Z " fill="#1874FD" transform="translate(1568,76)"/>
<path d="M0 0 C11.35193133 -0.49356223 11.35193133 -0.49356223 14.359375 1.796875 C16.74088203 4.99489872 16.5548473 7.1160689 16 11 C14.5625 13.4375 14.5625 13.4375 12 15 C8.96917943 15.31821008 6.03467666 15.23343667 3 15 C3 17.64 3 20.28 3 23 C2.01 23 1.02 23 0 23 C0 15.41 0 7.82 0 0 Z " fill="#1572FD" transform="translate(1547,29)"/>
<path d="M0 0 C1.90625 0.41015625 1.90625 0.41015625 4.40625 1.91015625 C6.50095675 5.40133416 6.64935088 8.50113598 5.90625 12.41015625 C4.40625 15.41015625 4.40625 15.41015625 1.90625 17.41015625 C-0.92119067 18.11701642 -3.2670692 18.12261883 -6.09375 17.41015625 C-9.35479325 14.71979557 -9.9972071 13.08595652 -10.59375 8.91015625 C-9.62930588 2.15904742 -6.662144 -0.48474555 0 0 Z " fill="#1E78FD" transform="translate(1578.09375,130.58984375)"/>
<path d="M0 0 C1.90625 0.41015625 1.90625 0.41015625 4.40625 1.91015625 C6.50095675 5.40133416 6.64935088 8.50113598 5.90625 12.41015625 C4.40625 15.41015625 4.40625 15.41015625 1.90625 17.41015625 C-0.92119067 18.11701642 -3.2670692 18.12261883 -6.09375 17.41015625 C-9.35479325 14.71979557 -9.9972071 13.08595652 -10.59375 8.91015625 C-9.62930588 2.15904742 -6.662144 -0.48474555 0 0 Z " fill="#1E78FD" transform="translate(49.09375,98.58984375)"/>
<path d="M0 0 C3.26104325 2.69036068 3.9034571 4.32419973 4.5 8.5 C3.9034571 12.67580027 3.26104325 14.30963932 0 17 C-2.8266808 17.71246258 -5.17255933 17.70686017 -8 17 C-10.6483191 14.88134472 -11.73807669 13.37782575 -12.375 10.02734375 C-12.57568891 6.67207596 -12.23027695 4.38379492 -10.5 1.5 C-6.97690664 -0.61385602 -4.00332769 -0.9352036 0 0 Z " fill="#1A76FD" transform="translate(1598,83)"/>
<path d="M0 0 C3.26104325 2.69036068 3.9034571 4.32419973 4.5 8.5 C3.9034571 12.67580027 3.26104325 14.30963932 0 17 C-2.8266808 17.71246258 -5.17255933 17.70686017 -8 17 C-10.6483191 14.88134472 -11.73807669 13.37782575 -12.375 10.02734375 C-12.57568891 6.67207596 -12.23027695 4.38379492 -10.5 1.5 C-6.97690664 -0.61385602 -4.00332769 -0.9352036 0 0 Z " fill="#1A76FD" transform="translate(1589,35)"/>
<path d="M0 0 C25.08 0 50.16 0 76 0 C76 0.99 76 1.98 76 3 C50.92 3 25.84 3 0 3 C0 2.01 0 1.02 0 0 Z " fill="#0D6EFD" transform="translate(64,118)"/>
<path d="M0 0 C5 1 5 1 6.4855957 2.49047852 C6.87835693 3.11365967 7.27111816 3.73684082 7.67578125 4.37890625 C8.11083984 5.05244141 8.54589844 5.72597656 8.99414062 6.41992188 C9.64672852 7.48049805 9.64672852 7.48049805 10.3125 8.5625 C10.76689453 9.27341797 11.22128906 9.98433594 11.68945312 10.71679688 C12.80673401 12.46916374 13.9052276 14.23348376 15 16 C15.33 10.72 15.66 5.44 16 0 C16.99 0 17.98 0 19 0 C19 7.59 19 15.18 19 23 C17.68 23 16.36 23 15 23 C13.62792969 21.62304688 13.62792969 21.62304688 12.421875 19.71875 C11.98359375 19.04199219 11.5453125 18.36523438 11.09375 17.66796875 C10.6503125 16.95253906 10.206875 16.23710938 9.75 15.5 C9.29109375 14.78457031 8.8321875 14.06914063 8.359375 13.33203125 C7.22699212 11.56268301 6.11183546 9.78233165 5 8 C4.67 12.95 4.34 17.9 4 23 C2.68 23 1.36 23 0 23 C0 15.41 0 7.82 0 0 Z " fill="#247CFD" transform="translate(77,93)"/>
<path d="M0 0 C2.0625 1.4375 2.0625 1.4375 3 4 C3.62304044 8.35329536 3.7644591 11.74628708 1.4375 15.5625 C-1.95518126 17.56331202 -4.12714161 17.55326548 -8 17 C-10.4375 15.625 -10.4375 15.625 -12 13 C-13.19436514 4.70730566 -13.19436514 4.70730566 -10.75390625 1.21875 C-7.48163579 -1.05507714 -3.80638088 -0.609588 0 0 Z " fill="#1A75FD" transform="translate(112,99)"/>
<path d="M0 0 C1.32 0 2.64 0 4 0 C5.15268129 2.89315371 6.29590743 5.78995487 7.4375 8.6875 C7.92573242 9.91243164 7.92573242 9.91243164 8.42382812 11.16210938 C9.96339769 15.08245663 11.39344895 18.80540049 12 23 C10.68 22.67 9.36 22.34 8 22 C7.67 20.35 7.34 18.7 7 17 C4.03 17.33 1.06 17.66 -2 18 C-2.99 20.475 -2.99 20.475 -4 23 C-5.32 22.67 -6.64 22.34 -8 22 C-5.36 14.74 -2.72 7.48 0 0 Z " fill="#1F78FD" transform="translate(1553,77)"/>
<path d="M0 0 C0.99 0 1.98 0 3 0 C4.31626692 3.61973402 5 6.09567131 5 10 C5.66 10 6.32 10 7 10 C7.66 6.7 8.32 3.4 9 0 C10.32 0 11.64 0 13 0 C13.99 2.97 14.98 5.94 16 9 C16.33 9 16.66 9 17 9 C17.66 6.03 18.32 3.06 19 0 C19.99 0 20.98 0 22 0 C21.58411954 6.19518473 20.39748106 11.26689311 18 17 C16.68 17 15.36 17 14 17 C13.01 13.37 12.02 9.74 11 6 C10.01 9.63 9.02 13.26 8 17 C6.68 17 5.36 17 4 17 C3.32844651 14.73050898 2.6626037 12.4596039 2 10.1875 C1.443125 8.29064453 1.443125 8.29064453 0.875 6.35546875 C0 3 0 3 0 0 Z " fill="#267DFD" transform="translate(117,99)"/>
<path d="M0 0 C2.5 1.3125 2.5 1.3125 4 3 C4 3.99 4 4.98 4 6 C0.125 5.125 0.125 5.125 -1 4 C-2.99958364 3.95919217 -5.00045254 3.95745644 -7 4 C-7 5.32 -7 6.64 -7 8 C-6.28972656 8.27714844 -5.57945313 8.55429688 -4.84765625 8.83984375 C-3.92855469 9.20207031 -3.00945313 9.56429687 -2.0625 9.9375 C-1.14597656 10.29714844 -0.22945312 10.65679687 0.71484375 11.02734375 C3 12 3 12 4 13 C4.46930779 19.3356552 4.46930779 19.3356552 2.796875 21.703125 C0.42881716 23.41224501 -1.10072958 23.40088634 -4 23.375 C-4.86625 23.38273437 -5.7325 23.39046875 -6.625 23.3984375 C-9.43606469 22.92684441 -10.35668861 22.3027982 -12 20 C-12 19.01 -12 18.02 -12 17 C-11.01 17 -10.02 17 -9 17 C-9 17.66 -9 18.32 -9 19 C-5.7 19 -2.4 19 1 19 C0.67 17.68 0.34 16.36 0 15 C-1.98436045 13.9691244 -1.98436045 13.9691244 -4.375 13.4375 C-7.7568516 12.55072784 -9.8210021 11.81138846 -12 9 C-12.4375 6 -12.4375 6 -12 3 C-8.92602491 -0.84246887 -4.55008972 -0.69929658 0 0 Z " fill="#1B76FD" transform="translate(14,93)"/>
<path d="M0 0 C5.95703125 -0.390625 5.95703125 -0.390625 8 0 C10.58170523 2.35119583 10.97630338 3.73838927 11.29296875 7.234375 C11.25816406 8.39453125 11.22335937 9.5546875 11.1875 10.75 C11.16042969 11.92046875 11.13335938 13.0909375 11.10546875 14.296875 C11.07066406 15.18890625 11.03585937 16.0809375 11 17 C10.360625 16.814375 9.72125 16.62875 9.0625 16.4375 C8.0415625 16.2209375 8.0415625 16.2209375 7 16 C6.67 16.33 6.34 16.66 6 17 C2.5625 17.1875 2.5625 17.1875 -1 17 C-3 15 -3 15 -3.25 12 C-3 9 -3 9 -1 7 C1.68839385 6.73008094 4.29141936 6.91262643 7 7 C7 5.68 7 4.36 7 3 C2.545 3.495 2.545 3.495 -2 4 C-1.34 2.68 -0.68 1.36 0 0 Z " fill="#247CFD" transform="translate(1619,131)"/>
<path d="M0 0 C2.5625 1.8125 2.5625 1.8125 4 4 C4 4.99 4 5.98 4 7 C3.01 7 2.02 7 1 7 C0.34 6.01 -0.32 5.02 -1 4 C-4.5 3.5 -4.5 3.5 -8 4 C-10.08133467 7.122002 -10.2737822 7.93266989 -10.25 11.5 C-10.25515625 12.2734375 -10.2603125 13.046875 -10.265625 13.84375 C-10.12738062 16.29513844 -10.12738062 16.29513844 -8 19 C-4.5 19.5 -4.5 19.5 -1 19 C-0.34 18.01 0.32 17.02 1 16 C2.32 16 3.64 16 5 16 C3.75023244 19.65316671 3.32901247 20.78065836 0 23 C-3.06526351 23.54531842 -5.93408329 23.54325893 -9 23 C-12.19978722 20.46683511 -14.72892848 18.22189767 -15.23828125 14.046875 C-15.41774475 8.49295197 -14.73664814 5.39605663 -11 1 C-7.54924222 -0.72537889 -3.7732483 -0.49595093 0 0 Z " fill="#227BFD" transform="translate(1561,125)"/>
<path d="M0 0 C0.99 0 1.98 0 3 0 C3.07347656 1.68029297 3.07347656 1.68029297 3.1484375 3.39453125 C3.22347856 4.86721203 3.29902582 6.33986707 3.375 7.8125 C3.4059375 8.55048828 3.436875 9.28847656 3.46875 10.04882812 C3.67346148 13.81893115 3.86433827 15.79650741 6 19 C9 19.5 9 19.5 12 19 C14.48044315 15.27933528 14.44381173 12.13459526 14.625 7.8125 C14.68300781 6.68811523 14.68300781 6.68811523 14.7421875 5.54101562 C14.83628216 3.69440801 14.91922319 1.8472381 15 0 C15.99 0 16.98 0 18 0 C18.11644156 3.08301416 18.18732432 6.16546123 18.25 9.25 C18.30027344 10.55904297 18.30027344 10.55904297 18.3515625 11.89453125 C18.4496665 18.32034352 18.4496665 18.32034352 16.296875 21.57421875 C13.64709323 23.21906628 12.10541332 23.56723386 9 23.5625 C8.154375 23.58441406 7.30875 23.60632813 6.4375 23.62890625 C4 23 4 23 1.703125 21.046875 C-0.65006857 16.8370333 -0.44415585 13.41818204 -0.25 8.6875 C-0.23195313 7.85154297 -0.21390625 7.01558594 -0.1953125 6.15429688 C-0.14841126 4.10236772 -0.07667411 2.05103244 0 0 Z " fill="#1472FD" transform="translate(1643,77)"/>
<path d="M0 0 C18.15 0 36.3 0 55 0 C55 0.99 55 1.98 55 3 C36.85 3 18.7 3 0 3 C0 2.01 0 1.02 0 0 Z " fill="#0E6FFD" transform="translate(0,118)"/>
<path d="M0 0 C0.66 0 1.32 0 2 0 C3.051875 1.1446875 3.051875 1.1446875 4.125 2.3125 C7.65104109 5.60858189 10.44397762 6.53280635 15 8 C15 9.32 15 10.64 15 12 C12.26094655 13.36952673 10.02912668 13.12621361 7 13 C6.34 12.67 5.68 12.34 5 12 C5 11.34 5 10.68 5 10 C4.01 10 3.02 10 2 10 C2.93545998 12.59256899 2.93545998 12.59256899 5 15 C7.72714162 15.76381481 10.14167178 15.85942648 13 16 C13 16.33 13 16.66 13 17 C6.565 17.495 6.565 17.495 0 18 C0 12.06 0 6.12 0 0 Z " fill="#F6F9FE" transform="translate(0,100)"/>
<path d="M0 0 C0.99 0 1.98 0 3 0 C3.33 2.64 3.66 5.28 4 8 C4.33 7.67 4.66 7.34 5 7 C8.4375 6.8125 8.4375 6.8125 12 7 C14 9 14 9 14.1953125 12.4765625 C14.18201493 13.85950968 14.15816232 15.24238654 14.125 16.625 C14.11597656 17.33140625 14.10695313 18.0378125 14.09765625 18.765625 C14.07407603 20.51056098 14.03820461 22.25532295 14 24 C13.01 24 12.02 24 11 24 C10.67 19.71 10.34 15.42 10 11 C8.68 10.67 7.36 10.34 6 10 C3.31907309 12.68092691 3.61329743 14.39167363 3.375 18.125 C3.30023437 19.22070312 3.22546875 20.31640625 3.1484375 21.4453125 C3.09945313 22.28835937 3.05046875 23.13140625 3 24 C2.01 24 1.02 24 0 24 C0 16.08 0 8.16 0 0 Z " fill="#1170FD" transform="translate(22,92)"/>
<path d="M0 0 C1.2375 0.1546875 1.2375 0.1546875 2.5 0.3125 C4.73465229 3.66447843 4.77108649 4.89041246 4.75 8.8125 C4.75515625 9.7715625 4.7603125 10.730625 4.765625 11.71875 C4.5 14.3125 4.5 14.3125 2.5 17.3125 C0 17.625 0 17.625 -2.5 17.3125 C-4.5 15.3125 -4.5 15.3125 -4.765625 12.34375 C-4.76046875 11.1784375 -4.7553125 10.013125 -4.75 8.8125 C-4.75515625 7.6471875 -4.7603125 6.481875 -4.765625 5.28125 C-4.42978069 1.52769591 -3.79727233 0.47465904 0 0 Z " fill="#ECEFF4" transform="translate(3030.5,95.6875)"/>
<path d="M0 0 C0.66 1.32 1.32 2.64 2 4 C-0.64 3.67 -3.28 3.34 -6 3 C-6.33 3.99 -6.66 4.98 -7 6 C-4.03 6.99 -1.06 7.98 2 9 C2.1875 11.875 2.1875 11.875 2 15 C-1.68717438 17.45811625 -3.64345704 17.31118164 -8 17 C-8.99 16.34 -9.98 15.68 -11 15 C-11 14.01 -11 13.02 -11 12 C-6.05 12.99 -6.05 12.99 -1 14 C-1.33 13.01 -1.66 12.02 -2 11 C-3.84359622 10.16524481 -3.84359622 10.16524481 -6 9.625 C-8.17578125 8.8828125 -8.17578125 8.8828125 -10 8 C-11.1875 5.5 -11.1875 5.5 -11 3 C-8.76222904 -1.32635718 -4.22372995 -0.20772442 0 0 Z " fill="#227AFD" transform="translate(1676,83)"/>
<path d="M0 0 C1.9375 1.5 1.9375 1.5 3 3 C-0.08273985 3.99088067 -1.91724891 3.92482533 -5 3 C-5.66 3 -6.32 3 -7 3 C-4.86567858 6.20148213 -4.31580104 6.52206739 -0.875 7.6875 C-0.15054687 7.93886719 0.57390625 8.19023438 1.3203125 8.44921875 C1.87460938 8.63097656 2.42890625 8.81273437 3 9 C3.1875 11.875 3.1875 11.875 3 15 C-1.06849409 17.71232939 -3.16476784 17.30699887 -8 17 C-8.66 16.34 -9.32 15.68 -10 15 C-10 14.01 -10 13.02 -10 12 C-7.03 12.33 -4.06 12.66 -1 13 C-1 12.34 -1 11.68 -1 11 C-1.56589844 10.79503906 -2.13179687 10.59007812 -2.71484375 10.37890625 C-3.44832031 10.10949219 -4.18179687 9.84007812 -4.9375 9.5625 C-5.66839844 9.29566406 -6.39929687 9.02882813 -7.15234375 8.75390625 C-9 8 -9 8 -10 7 C-10.25 4.5625 -10.25 4.5625 -10 2 C-6.30513897 -0.46324069 -4.36706908 -0.38991688 0 0 Z " fill="#1E78FD" transform="translate(1671,35)"/>
<path d="M0 0 C10.3651777 -0.3658298 10.3651777 -0.3658298 12.84375 1.0625 C14.63736487 4.06801682 14.28253857 6.73443178 14.1875 10.1875 C14.16042969 11.45980469 14.13335938 12.73210937 14.10546875 14.04296875 C14.07066406 15.01878906 14.03585937 15.99460938 14 17 C13.01 17 12.02 17 11 17 C10.67 12.38 10.34 7.76 10 3 C8.02 3.33 6.04 3.66 4 4 C3.67 8.29 3.34 12.58 3 17 C2.01 17 1.02 17 0 17 C0 11.39 0 5.78 0 0 Z " fill="#1F78FD" transform="translate(1588,131)"/>
<path d="M0 0 C0.99 0 1.98 0 3 0 C3.33 4.62 3.66 9.24 4 14 C5.98 13.34 7.96 12.68 10 12 C10.33 8.04 10.66 4.08 11 0 C11.99 0 12.98 0 14 0 C14 5.61 14 11.22 14 17 C12.68 16.67 11.36 16.34 10 16 C9.67 16.33 9.34 16.66 9 17 C6.66702567 17.04092937 4.33294775 17.04241723 2 17 C-0.25998595 13.40537669 -0.20868087 10.43404325 -0.125 6.25 C-0.09792969 4.49429688 -0.09792969 4.49429688 -0.0703125 2.703125 C-0.04710937 1.81109375 -0.02390625 0.9190625 0 0 Z " fill="#1271FD" transform="translate(1605,83)"/>
<path d="M0 0 C0.99 0 1.98 0 3 0 C3.33 4.62 3.66 9.24 4 14 C5.98 13.34 7.96 12.68 10 12 C10.33 8.04 10.66 4.08 11 0 C11.99 0 12.98 0 14 0 C14 5.61 14 11.22 14 17 C12.68 16.67 11.36 16.34 10 16 C9.67 16.33 9.34 16.66 9 17 C6.66702567 17.04092937 4.33294775 17.04241723 2 17 C-0.25998595 13.40537669 -0.20868087 10.43404325 -0.125 6.25 C-0.09792969 4.49429688 -0.09792969 4.49429688 -0.0703125 2.703125 C-0.04710937 1.81109375 -0.02390625 0.9190625 0 0 Z " fill="#1271FD" transform="translate(1615,35)"/>
<path d="M0 0 C2 1.375 2 1.375 3 3 C3 3.66 3 4.32 3 5 C-0.3 4.34 -3.6 3.68 -7 3 C-7.020625 4.464375 -7.04125 5.92875 -7.0625 7.4375 C-7.07410156 8.26121094 -7.08570313 9.08492187 -7.09765625 9.93359375 C-7.23267348 11.99163938 -7.23267348 11.99163938 -6 13 C-2.79950343 13.17299981 -0.07045451 12.9097643 3 12 C1.125 15.875 1.125 15.875 0 17 C-7.35123043 17.47427293 -7.35123043 17.47427293 -9.69921875 15.7578125 C-12.08582239 12.53267245 -12.20591054 8.91916393 -12 5 C-9.2433147 -0.87293826 -5.88436118 -0.74722047 0 0 Z " fill="#2079FD" transform="translate(1644,35)"/>
<path d="M0 0 C2.09765625 0.47265625 2.09765625 0.47265625 4.16015625 2.97265625 C4.46953125 3.79765625 4.77890625 4.62265625 5.09765625 5.47265625 C3.77765625 5.47265625 2.45765625 5.47265625 1.09765625 5.47265625 C1.09765625 4.81265625 1.09765625 4.15265625 1.09765625 3.47265625 C-2.72047822 3.74806329 -2.72047822 3.74806329 -5.90234375 5.47265625 C-5.80050665 7.38690082 -5.80050665 7.38690082 -5.46484375 9.53515625 C-5.27921875 10.83453125 -5.09359375 12.13390625 -4.90234375 13.47265625 C-1.41000131 13.57243746 1.69202773 13.25108563 5.09765625 12.47265625 C4.09765625 14.97265625 4.09765625 14.97265625 2.09765625 17.47265625 C-2.2936063 18.09997947 -4.57362202 18.23667124 -8.40234375 16.03515625 C-10.64317102 12.20707633 -10.52140041 8.79811626 -9.90234375 4.47265625 C-8.13933931 -0.34622256 -4.62091209 -0.1728146 0 0 Z " fill="#1D77FD" transform="translate(1642.90234375,130.52734375)"/>
<path d="M0 0 C1.32 0 2.64 0 4 0 C4 1.65 4 3.3 4 5 C4.99 5 5.98 5 7 5 C7 5.66 7 6.32 7 7 C6.01 7 5.02 7 4 7 C4 10.96 4 14.92 4 19 C4.99 19 5.98 19 7 19 C7 19.99 7 20.98 7 22 C4.625 22.125 4.625 22.125 2 22 C0 20 0 20 -0.1953125 16.9609375 C-0.17210937 15.77757813 -0.14890625 14.59421875 -0.125 13.375 C-0.10695313 12.18648437 -0.08890625 10.99796875 -0.0703125 9.7734375 C-0.04710937 8.85820313 -0.02390625 7.94296875 0 7 C-0.66 7 -1.32 7 -2 7 C-2 6.34 -2 5.68 -2 5 C-1.34 5 -0.68 5 0 5 C0 3.35 0 1.7 0 0 Z " fill="#2E82FD" transform="translate(1624,78)"/>
<path d="M0 0 C2.375 1.5 2.375 1.5 3.3125 4.375 C3.37533706 7.51685311 3.06692787 8.91234561 1.375 11.5 C-0.605 11.5 -2.585 11.5 -4.625 11.5 C-6.34717143 8.86609075 -6.62955315 7.57588583 -6.4375 4.375 C-5.35306221 0.53775857 -4.04420811 -0.77032535 0 0 Z " fill="#EEF5FE" transform="translate(1595.625,85.5)"/>
<path d="M0 0 C2.375 1.5 2.375 1.5 3.3125 4.375 C3.37533706 7.51685311 3.06692787 8.91234561 1.375 11.5 C-0.605 11.5 -2.585 11.5 -4.625 11.5 C-6.34717143 8.86609075 -6.62955315 7.57588583 -6.4375 4.375 C-5.35306221 0.53775857 -4.04420811 -0.77032535 0 0 Z " fill="#EEF5FE" transform="translate(1586.625,37.5)"/>
<path d="M0 0 C2.875 -0.125 2.875 -0.125 6 0 C8 2 8 2 8.25 5.5 C8 9 8 9 6 11 C3.5 11.25 3.5 11.25 1 11 C-1 9 -1 9 -1.1875 5.5 C-1 2 -1 2 0 0 Z " fill="#F4F8FE" transform="translate(1573,134)"/>
<path d="M0 0 C2.875 -0.125 2.875 -0.125 6 0 C8 2 8 2 8.25 5.5 C8 9 8 9 6 11 C3.5 11.25 3.5 11.25 1 11 C-1 9 -1 9 -1.1875 5.5 C-1 2 -1 2 0 0 Z " fill="#F4F8FE" transform="translate(44,102)"/>
<path d="M0 0 C0.99 0 1.98 0 3 0 C3 1.32 3 2.64 3 4 C4.32 4 5.64 4 7 4 C7 4.66 7 5.32 7 6 C5.68 6 4.36 6 3 6 C3.33 9.63 3.66 13.26 4 17 C4.99 17.33 5.98 17.66 7 18 C7 18.99 7 19.98 7 21 C4.625 21.125 4.625 21.125 2 21 C0 19 0 19 -0.1953125 15.9609375 C-0.16050781 14.18589844 -0.16050781 14.18589844 -0.125 12.375 C-0.10695313 11.18648437 -0.08890625 9.99796875 -0.0703125 8.7734375 C-0.04710937 7.85820312 -0.02390625 6.94296875 0 6 C-0.99 6 -1.98 6 -3 6 C-3 5.34 -3 4.68 -3 4 C-2.01 4 -1.02 4 0 4 C0 2.68 0 1.36 0 0 Z " fill="#1774FD" transform="translate(1652,127)"/>
<path d="M0 0 C0.99 0 1.98 0 3 0 C3 1.32 3 2.64 3 4 C4.32 4 5.64 4 7 4 C7 4.66 7 5.32 7 6 C5.68 6 4.36 6 3 6 C3 9.96 3 13.92 3 18 C4.32 18 5.64 18 7 18 C7 18.99 7 19.98 7 21 C4.69 20.67 2.38 20.34 0 20 C0 15.38 0 10.76 0 6 C-0.99 6 -1.98 6 -3 6 C-3 5.34 -3 4.68 -3 4 C-2.01 4 -1.02 4 0 4 C0 2.68 0 1.36 0 0 Z " fill="#1975FD" transform="translate(1607,127)"/>
<path d="M0 0 C2.5 0.25 2.5 0.25 4.5 2.25 C4.75 5.75 4.75 5.75 4.5 9.25 C2.5 11.25 2.5 11.25 0 11.5 C-2.5 11.25 -2.5 11.25 -4.5 9.25 C-4.75 5.75 -4.75 5.75 -4.5 2.25 C-2.5 0.25 -2.5 0.25 0 0 Z " fill="#F9FBFE" transform="translate(107.5,101.75)"/>
<path d="M0 0 C0.94875 0.04125 1.8975 0.0825 2.875 0.125 C4.38162097 3.13824195 4.05270373 5.80786377 3.875 9.125 C1.875 11.125 1.875 11.125 -0.625 11.4375 C-1.8625 11.2828125 -1.8625 11.2828125 -3.125 11.125 C-5.42663882 7.67254176 -5.46990322 6.17761287 -5.125 2.125 C-3.125 0.125 -3.125 0.125 0 0 Z " fill="#F4F8FE" transform="translate(1576.125,85.875)"/>
<path d="M0 0 C0.99 0 1.98 0 3 0 C3 1.32 3 2.64 3 4 C4.32 4 5.64 4 7 4 C7 4.66 7 5.32 7 6 C5.68 6 4.36 6 3 6 C3 9.96 3 13.92 3 18 C4.32 18 5.64 18 7 18 C7 18.99 7 19.98 7 21 C4.69 20.67 2.38 20.34 0 20 C0 15.38 0 10.76 0 6 C-0.99 6 -1.98 6 -3 6 C-3 5.34 -3 4.68 -3 4 C-2.01 4 -1.02 4 0 4 C0 2.68 0 1.36 0 0 Z " fill="#1975FD" transform="translate(1652,31)"/>
<path d="M0 0 C1.98 0 3.96 0 6 0 C7.77084117 2.70834531 8.01052504 3.89264459 7.6875 7.1875 C7 10 7 10 6 11 C3.5625 11.1875 3.5625 11.1875 1 11 C-1 9 -1 9 -1.1875 5.5 C-1 2 -1 2 0 0 Z " fill="#F7FAFE" transform="translate(63,102)"/>
<path d="M0 0 C6.625 -0.25 6.625 -0.25 10 2 C10.3125 4.5 10.3125 4.5 10 7 C8 9 8 9 6.0546875 9.1953125 C4.03645833 9.13020833 2.01822917 9.06510417 0 9 C0 6.03 0 3.06 0 0 Z " fill="#EDF4FE" transform="translate(1550,32)"/>
<path d="M0 0 C1.99954746 -0.04254356 4.00041636 -0.04080783 6 0 C7 1 7 1 7.1328125 3.03125 C7.13023438 3.8459375 7.12765625 4.660625 7.125 5.5 C7.12757812 6.3146875 7.13015625 7.129375 7.1328125 7.96875 C7 10 7 10 6 11 C3.5625 11.1875 3.5625 11.1875 1 11 C-1 9 -1 9 -1.1875 5.5 C-1 2 -1 2 0 0 Z " fill="#F9FBFE" transform="translate(1600,38)"/>
<path d="M0 0 C2.97 0 5.94 0 9 0 C9 0.99 9 1.98 9 3 C7.35 3.33 5.7 3.66 4 4 C3.67 8.29 3.34 12.58 3 17 C2.01 17 1.02 17 0 17 C0 11.39 0 5.78 0 0 Z " fill="#1F79FD" transform="translate(1567,35)"/>
<path d="M0 0 C5.94 0 11.88 0 18 0 C18 0.99 18 1.98 18 3 C12.06 3 6.12 3 0 3 C0 2.01 0 1.02 0 0 Z " fill="#126DF3" transform="translate(3020,118)"/>
<path d="M0 0 C0.639375 0.804375 1.27875 1.60875 1.9375 2.4375 C4.57702485 5.71690966 4.9883514 6.10981682 9.0625 6.5625 C10.361875 6.706875 11.66125 6.85125 13 7 C13 7.33 13 7.66 13 8 C6.565 8.495 6.565 8.495 0 9 C0 6.03 0 3.06 0 0 Z " fill="#E9F2FE" transform="translate(0,109)"/>
<path d="M0 0 C2.12508244 3.18762365 2.5020163 5.26512223 3 9 C1.02 9 -0.96 9 -3 9 C-2.01 6.03 -1.02 3.06 0 0 Z " fill="#DFEBFE" transform="translate(1555,82)"/>
<path d="M0 0 C0.33 0 0.66 0 1 0 C1.19335938 0.68707031 1.38671875 1.37414063 1.5859375 2.08203125 C1.97652344 3.43361328 1.97652344 3.43361328 2.375 4.8125 C2.63023438 5.70582031 2.88546875 6.59914063 3.1484375 7.51953125 C3.95266661 10.20467896 3.95266661 10.20467896 6 13 C4.02 13 2.04 13 0 13 C0 8.71 0 4.42 0 0 Z " fill="#171717" transform="translate(0,1467)"/>
<path d="M0 0 C0.33 0 0.66 0 1 0 C1 2.31 1 4.62 1 7 C-2.3 6.67 -5.6 6.34 -9 6 C-9 5.67 -9 5.34 -9 5 C-7.88625 4.731875 -6.7725 4.46375 -5.625 4.1875 C-1.78159049 3.34190981 -1.78159049 3.34190981 0 0 Z " fill="#D5DFEE" transform="translate(3037,111)"/>
<path d="M0 0 C1.98 0 3.96 0 6 0 C5.67 1.32 5.34 2.64 5 4 C3.02 4 1.04 4 -1 4 C-0.67 2.68 -0.34 1.36 0 0 Z " fill="#F6F9FE" transform="translate(1620,141)"/>
<path d="M0 0 C0.33 0 0.66 0 1 0 C0.67 2.97 0.34 5.94 0 9 C-1.32 9 -2.64 9 -4 9 C-4 7.68 -4 6.36 -4 5 C-3.01 5 -2.02 5 -1 5 C-0.67 3.35 -0.34 1.7 0 0 Z " fill="#1472FD" transform="translate(125,107)"/>
<path d="M0 0 C0.99 0 1.98 0 3 0 C2.67 2.97 2.34 5.94 2 9 C1.01 8.34 0.02 7.68 -1 7 C-0.67 4.69 -0.34 2.38 0 0 Z " fill="#2B80FD" transform="translate(136,99)"/>
</svg>
